<svg width="27" height="27" viewBox="0 0 27 27" fill="none" xmlns="http://www.w3.org/2000/svg">
<g clip-path="url(#clip0_739_370)">
<path d="M13.5001 10.125V14.625M13.5001 19.125H13.5114M11.5764 4.3425L2.04762 20.25C1.85115 20.5902 1.7472 20.976 1.7461 21.3688C1.745 21.7617 1.84679 22.148 2.04134 22.4893C2.2359 22.8307 2.51643 23.1151 2.85504 23.3143C3.19364 23.5136 3.57851 23.6207 3.97136 23.625H23.0289C23.4217 23.6207 23.8066 23.5136 24.1452 23.3143C24.4838 23.1151 24.7643 22.8307 24.9589 22.4893C25.1534 22.148 25.2552 21.7617 25.2541 21.3688C25.253 20.976 25.1491 20.5902 24.9526 20.25L15.4239 4.3425C15.2233 4.01187 14.9409 3.73851 14.604 3.5488C14.267 3.35908 13.8868 3.25941 13.5001 3.25941C13.1134 3.25941 12.7332 3.35908 12.3963 3.5488C12.0593 3.73851 11.7769 4.01187 11.5764 4.3425Z" stroke="white" stroke-width="4" stroke-linecap="round" stroke-linejoin="round"/>
</g>
<defs>
<clipPath id="clip0_739_370">
<rect width="27" height="27" fill="white"/>
</clipPath>
</defs>
</svg>
