<svg width="27" height="27" viewBox="0 0 27 27" fill="none" xmlns="http://www.w3.org/2000/svg">
<g clip-path="url(#clip0_739_394)">
<path d="M23.4449 5.18624C22.8703 4.61137 22.1881 4.15535 21.4372 3.84421C20.6863 3.53308 19.8814 3.37294 19.0686 3.37294C18.2558 3.37294 17.451 3.53308 16.7001 3.84421C15.9492 4.15535 15.267 4.61137 14.6924 5.18624L13.4999 6.37874L12.3074 5.18624C11.1467 4.02559 9.57255 3.37354 7.93114 3.37354C6.28973 3.37354 4.71554 4.02559 3.55489 5.18624C2.39424 6.3469 1.74219 7.92108 1.74219 9.56249C1.74219 11.2039 2.39424 12.7781 3.55489 13.9387L13.4999 23.8837L23.4449 13.9387C24.0198 13.3641 24.4758 12.6819 24.7869 11.931C25.0981 11.1801 25.2582 10.3753 25.2582 9.56249C25.2582 8.7497 25.0981 7.94486 24.7869 7.19397C24.4758 6.44308 24.0198 5.76084 23.4449 5.18624Z" stroke="white" stroke-width="4" stroke-linecap="round" stroke-linejoin="round"/>
</g>
<defs>
<clipPath id="clip0_739_394">
<rect width="27" height="27" fill="white"/>
</clipPath>
</defs>
</svg>
