<svg width="27" height="27" viewBox="0 0 27 27" fill="none" xmlns="http://www.w3.org/2000/svg">
<rect width="27" height="27" rx="13.5" fill="white"/>
<path fill-rule="evenodd" clip-rule="evenodd" d="M17.5504 10.8C17.5504 13.0368 15.7372 14.85 13.5004 14.85C11.2637 14.85 9.45041 13.0368 9.45041 10.8C9.45041 8.56325 11.2637 6.75 13.5004 6.75C15.7372 6.75 17.5504 8.56325 17.5504 10.8ZM16.2004 10.8C16.2004 12.2912 14.9916 13.5 13.5004 13.5C12.0092 13.5 10.8004 12.2912 10.8004 10.8C10.8004 9.30883 12.0092 8.1 13.5004 8.1C14.9916 8.1 16.2004 9.30883 16.2004 10.8Z" fill="#5599B3"/>
<path d="M13.5004 16.875C9.1302 16.875 5.40667 19.4592 3.98828 23.0796C4.33381 23.4227 4.6978 23.7473 5.07863 24.0516C6.13483 20.7277 9.44819 18.225 13.5004 18.225C17.5526 18.225 20.866 20.7277 21.9222 24.0516C22.303 23.7473 22.667 23.4227 23.0125 23.0796C21.5942 19.4592 17.8706 16.875 13.5004 16.875Z" fill="#5599B3"/>
</svg>
